<?xml version="1.0" encoding="utf-8" standalone="no"?>
<!DOCTYPE svg PUBLIC "-//W3C//DTD SVG 1.1//EN"
  "http://www.w3.org/Graphics/SVG/1.1/DTD/svg11.dtd">
<svg xmlns:xlink="http://www.w3.org/1999/xlink" width="1080pt" height="288pt" viewBox="0 0 1080 288" xmlns="http://www.w3.org/2000/svg" version="1.1">
 <metadata>
  <rdf:RDF xmlns:dc="http://purl.org/dc/elements/1.1/" xmlns:cc="http://creativecommons.org/ns#" xmlns:rdf="http://www.w3.org/1999/02/22-rdf-syntax-ns#">
   <cc:Work>
    <dc:type rdf:resource="http://purl.org/dc/dcmitype/StillImage"/>
    <dc:date>2024-09-29T15:47:04.208055</dc:date>
    <dc:format>image/svg+xml</dc:format>
    <dc:creator>
     <cc:Agent>
      <dc:title>Matplotlib v3.9.2, https://matplotlib.org/</dc:title>
     </cc:Agent>
    </dc:creator>
   </cc:Work>
  </rdf:RDF>
 </metadata>
 <defs>
  <style type="text/css">*{stroke-linejoin: round; stroke-linecap: butt}</style>
 </defs>
 <g id="figure_1">
  <g id="patch_1">
   <path d="M 0 288 
L 1080 288 
L 1080 0 
L 0 0 
z
" style="fill: #f0f0f0"/>
  </g>
  <g id="axes_1">
   <g id="patch_2">
    <path d="M 34.97 255.46 
L 1067.04 255.46 
L 1067.04 39.6 
L 34.97 39.6 
z
" style="fill: #ffffff"/>
   </g>
   <g id="matplotlib.axis_1">
    <g id="xtick_1">
     <g id="line2d_1">
      <defs>
       <path id="mba57b5aa54" d="M 0 0 
L 0 6 
" style="stroke: #262626; stroke-width: 1.25"/>
      </defs>
      <g>
       <use xlink:href="#mba57b5aa54" x="292.9875" y="255.46" style="fill: #262626; stroke: #262626; stroke-width: 1.25"/>
      </g>
     </g>
     <g id="text_1">
      <!-- Age -->
      <g style="fill: #262626" transform="translate(283.201797 272.833594) scale(0.11 -0.11)">
       <defs>
        <path id="ArialMT-41" d="M -9 0 
L 1750 4581 
L 2403 4581 
L 4278 0 
L 3588 0 
L 3053 1388 
L 1138 1388 
L 634 0 
L -9 0 
z
M 1313 1881 
L 2866 1881 
L 2388 3150 
Q 2169 3728 2063 4100 
Q 1975 3659 1816 3225 
L 1313 1881 
z
" transform="scale(0.015625)"/>
        <path id="ArialMT-67" d="M 319 -275 
L 866 -356 
Q 900 -609 1056 -725 
Q 1266 -881 1628 -881 
Q 2019 -881 2231 -725 
Q 2444 -569 2519 -288 
Q 2563 -116 2559 434 
Q 2191 0 1641 0 
Q 956 0 581 494 
Q 206 988 206 1678 
Q 206 2153 378 2554 
Q 550 2956 876 3175 
Q 1203 3394 1644 3394 
Q 2231 3394 2613 2919 
L 2613 3319 
L 3131 3319 
L 3131 450 
Q 3131 -325 2973 -648 
Q 2816 -972 2473 -1159 
Q 2131 -1347 1631 -1347 
Q 1038 -1347 672 -1080 
Q 306 -813 319 -275 
z
M 784 1719 
Q 784 1066 1043 766 
Q 1303 466 1694 466 
Q 2081 466 2343 764 
Q 2606 1063 2606 1700 
Q 2606 2309 2336 2618 
Q 2066 2928 1684 2928 
Q 1309 2928 1046 2623 
Q 784 2319 784 1719 
z
" transform="scale(0.015625)"/>
        <path id="ArialMT-65" d="M 2694 1069 
L 3275 997 
Q 3138 488 2766 206 
Q 2394 -75 1816 -75 
Q 1088 -75 661 373 
Q 234 822 234 1631 
Q 234 2469 665 2931 
Q 1097 3394 1784 3394 
Q 2450 3394 2872 2941 
Q 3294 2488 3294 1666 
Q 3294 1616 3291 1516 
L 816 1516 
Q 847 969 1125 678 
Q 1403 388 1819 388 
Q 2128 388 2347 550 
Q 2566 713 2694 1069 
z
M 847 1978 
L 2700 1978 
Q 2663 2397 2488 2606 
Q 2219 2931 1791 2931 
Q 1403 2931 1139 2672 
Q 875 2413 847 1978 
z
" transform="scale(0.015625)"/>
       </defs>
       <use xlink:href="#ArialMT-41"/>
       <use xlink:href="#ArialMT-67" x="66.699219"/>
       <use xlink:href="#ArialMT-65" x="122.314453"/>
      </g>
     </g>
    </g>
    <g id="xtick_2">
     <g id="line2d_2">
      <g>
       <use xlink:href="#mba57b5aa54" x="809.0225" y="255.46" style="fill: #262626; stroke: #262626; stroke-width: 1.25"/>
      </g>
     </g>
     <g id="text_2">
      <!-- Fare -->
      <g style="fill: #262626" transform="translate(797.714844 272.833594) scale(0.11 -0.11)">
       <defs>
        <path id="ArialMT-46" d="M 525 0 
L 525 4581 
L 3616 4581 
L 3616 4041 
L 1131 4041 
L 1131 2622 
L 3281 2622 
L 3281 2081 
L 1131 2081 
L 1131 0 
L 525 0 
z
" transform="scale(0.015625)"/>
        <path id="ArialMT-61" d="M 2588 409 
Q 2275 144 1986 34 
Q 1697 -75 1366 -75 
Q 819 -75 525 192 
Q 231 459 231 875 
Q 231 1119 342 1320 
Q 453 1522 633 1644 
Q 813 1766 1038 1828 
Q 1203 1872 1538 1913 
Q 2219 1994 2541 2106 
Q 2544 2222 2544 2253 
Q 2544 2597 2384 2738 
Q 2169 2928 1744 2928 
Q 1347 2928 1158 2789 
Q 969 2650 878 2297 
L 328 2372 
Q 403 2725 575 2942 
Q 747 3159 1072 3276 
Q 1397 3394 1825 3394 
Q 2250 3394 2515 3294 
Q 2781 3194 2906 3042 
Q 3031 2891 3081 2659 
Q 3109 2516 3109 2141 
L 3109 1391 
Q 3109 606 3145 398 
Q 3181 191 3288 0 
L 2700 0 
Q 2613 175 2588 409 
z
M 2541 1666 
Q 2234 1541 1622 1453 
Q 1275 1403 1131 1340 
Q 988 1278 909 1158 
Q 831 1038 831 891 
Q 831 666 1001 516 
Q 1172 366 1500 366 
Q 1825 366 2078 508 
Q 2331 650 2450 897 
Q 2541 1088 2541 1459 
L 2541 1666 
z
" transform="scale(0.015625)"/>
        <path id="ArialMT-72" d="M 416 0 
L 416 3319 
L 922 3319 
L 922 2816 
Q 1116 3169 1280 3281 
Q 1444 3394 1641 3394 
Q 1925 3394 2219 3213 
L 2025 2691 
Q 1819 2813 1613 2813 
Q 1428 2813 1281 2702 
Q 1134 2591 1072 2394 
Q 978 2094 978 1738 
L 978 0 
L 416 0 
z
" transform="scale(0.015625)"/>
       </defs>
       <use xlink:href="#ArialMT-46"/>
       <use xlink:href="#ArialMT-61" x="61.083984"/>
       <use xlink:href="#ArialMT-72" x="116.699219"/>
       <use xlink:href="#ArialMT-65" x="150"/>
      </g>
     </g>
    </g>
   </g>
   <g id="matplotlib.axis_2">
    <g id="ytick_1">
     <g id="line2d_3">
      <defs>
       <path id="m9af60fc910" d="M 0 0 
L -6 0 
" style="stroke: #262626; stroke-width: 1.25"/>
      </defs>
      <g>
       <use xlink:href="#m9af60fc910" x="34.97" y="237.123398" style="fill: #262626; stroke: #262626; stroke-width: 1.25"/>
      </g>
     </g>
     <g id="text_3">
      <!-- −2 -->
      <g style="fill: #262626" transform="translate(12.928281 241.060195) scale(0.11 -0.11)">
       <defs>
        <path id="ArialMT-2212" d="M 3381 1997 
L 356 1997 
L 356 2522 
L 3381 2522 
L 3381 1997 
z
" transform="scale(0.015625)"/>
        <path id="ArialMT-32" d="M 3222 541 
L 3222 0 
L 194 0 
Q 188 203 259 391 
Q 375 700 629 1000 
Q 884 1300 1366 1694 
Q 2113 2306 2375 2664 
Q 2638 3022 2638 3341 
Q 2638 3675 2398 3904 
Q 2159 4134 1775 4134 
Q 1369 4134 1125 3890 
Q 881 3647 878 3216 
L 300 3275 
Q 359 3922 746 4261 
Q 1134 4600 1788 4600 
Q 2447 4600 2831 4234 
Q 3216 3869 3216 3328 
Q 3216 3053 3103 2787 
Q 2991 2522 2730 2228 
Q 2469 1934 1863 1422 
Q 1356 997 1212 845 
Q 1069 694 975 541 
L 3222 541 
z
" transform="scale(0.015625)"/>
       </defs>
       <use xlink:href="#ArialMT-2212"/>
       <use xlink:href="#ArialMT-32" x="58.398438"/>
      </g>
     </g>
    </g>
    <g id="ytick_2">
     <g id="line2d_4">
      <g>
       <use xlink:href="#m9af60fc910" x="34.97" y="206.289969" style="fill: #262626; stroke: #262626; stroke-width: 1.25"/>
      </g>
     </g>
     <g id="text_4">
      <!-- 0 -->
      <g style="fill: #262626" transform="translate(19.352969 210.226765) scale(0.11 -0.11)">
       <defs>
        <path id="ArialMT-30" d="M 266 2259 
Q 266 3072 433 3567 
Q 600 4063 929 4331 
Q 1259 4600 1759 4600 
Q 2128 4600 2406 4451 
Q 2684 4303 2865 4023 
Q 3047 3744 3150 3342 
Q 3253 2941 3253 2259 
Q 3253 1453 3087 958 
Q 2922 463 2592 192 
Q 2263 -78 1759 -78 
Q 1097 -78 719 397 
Q 266 969 266 2259 
z
M 844 2259 
Q 844 1131 1108 757 
Q 1372 384 1759 384 
Q 2147 384 2411 759 
Q 2675 1134 2675 2259 
Q 2675 3391 2411 3762 
Q 2147 4134 1753 4134 
Q 1366 4134 1134 3806 
Q 844 3388 844 2259 
z
" transform="scale(0.015625)"/>
       </defs>
       <use xlink:href="#ArialMT-30"/>
      </g>
     </g>
    </g>
    <g id="ytick_3">
     <g id="line2d_5">
      <g>
       <use xlink:href="#m9af60fc910" x="34.97" y="175.456539" style="fill: #262626; stroke: #262626; stroke-width: 1.25"/>
      </g>
     </g>
     <g id="text_5">
      <!-- 2 -->
      <g style="fill: #262626" transform="translate(19.352969 179.393336) scale(0.11 -0.11)">
       <use xlink:href="#ArialMT-32"/>
      </g>
     </g>
    </g>
    <g id="ytick_4">
     <g id="line2d_6">
      <g>
       <use xlink:href="#m9af60fc910" x="34.97" y="144.623109" style="fill: #262626; stroke: #262626; stroke-width: 1.25"/>
      </g>
     </g>
     <g id="text_6">
      <!-- 4 -->
      <g style="fill: #262626" transform="translate(19.352969 148.559906) scale(0.11 -0.11)">
       <defs>
        <path id="ArialMT-34" d="M 2069 0 
L 2069 1097 
L 81 1097 
L 81 1613 
L 2172 4581 
L 2631 4581 
L 2631 1613 
L 3250 1613 
L 3250 1097 
L 2631 1097 
L 2631 0 
L 2069 0 
z
M 2069 1613 
L 2069 3678 
L 634 1613 
L 2069 1613 
z
" transform="scale(0.015625)"/>
       </defs>
       <use xlink:href="#ArialMT-34"/>
      </g>
     </g>
    </g>
    <g id="ytick_5">
     <g id="line2d_7">
      <g>
       <use xlink:href="#m9af60fc910" x="34.97" y="113.789679" style="fill: #262626; stroke: #262626; stroke-width: 1.25"/>
      </g>
     </g>
     <g id="text_7">
      <!-- 6 -->
      <g style="fill: #262626" transform="translate(19.352969 117.726476) scale(0.11 -0.11)">
       <defs>
        <path id="ArialMT-36" d="M 3184 3459 
L 2625 3416 
Q 2550 3747 2413 3897 
Q 2184 4138 1850 4138 
Q 1581 4138 1378 3988 
Q 1113 3794 959 3422 
Q 806 3050 800 2363 
Q 1003 2672 1297 2822 
Q 1591 2972 1913 2972 
Q 2475 2972 2870 2558 
Q 3266 2144 3266 1488 
Q 3266 1056 3080 686 
Q 2894 316 2569 119 
Q 2244 -78 1831 -78 
Q 1128 -78 684 439 
Q 241 956 241 2144 
Q 241 3472 731 4075 
Q 1159 4600 1884 4600 
Q 2425 4600 2770 4297 
Q 3116 3994 3184 3459 
z
M 888 1484 
Q 888 1194 1011 928 
Q 1134 663 1356 523 
Q 1578 384 1822 384 
Q 2178 384 2434 671 
Q 2691 959 2691 1453 
Q 2691 1928 2437 2201 
Q 2184 2475 1800 2475 
Q 1419 2475 1153 2201 
Q 888 1928 888 1484 
z
" transform="scale(0.015625)"/>
       </defs>
       <use xlink:href="#ArialMT-36"/>
      </g>
     </g>
    </g>
    <g id="ytick_6">
     <g id="line2d_8">
      <g>
       <use xlink:href="#m9af60fc910" x="34.97" y="82.95625" style="fill: #262626; stroke: #262626; stroke-width: 1.25"/>
      </g>
     </g>
     <g id="text_8">
      <!-- 8 -->
      <g style="fill: #262626" transform="translate(19.352969 86.893047) scale(0.11 -0.11)">
       <defs>
        <path id="ArialMT-38" d="M 1131 2484 
Q 781 2613 612 2850 
Q 444 3088 444 3419 
Q 444 3919 803 4259 
Q 1163 4600 1759 4600 
Q 2359 4600 2725 4251 
Q 3091 3903 3091 3403 
Q 3091 3084 2923 2848 
Q 2756 2613 2416 2484 
Q 2838 2347 3058 2040 
Q 3278 1734 3278 1309 
Q 3278 722 2862 322 
Q 2447 -78 1769 -78 
Q 1091 -78 675 323 
Q 259 725 259 1325 
Q 259 1772 486 2073 
Q 713 2375 1131 2484 
z
M 1019 3438 
Q 1019 3113 1228 2906 
Q 1438 2700 1772 2700 
Q 2097 2700 2305 2904 
Q 2513 3109 2513 3406 
Q 2513 3716 2298 3927 
Q 2084 4138 1766 4138 
Q 1444 4138 1231 3931 
Q 1019 3725 1019 3438 
z
M 838 1322 
Q 838 1081 952 856 
Q 1066 631 1291 507 
Q 1516 384 1775 384 
Q 2178 384 2440 643 
Q 2703 903 2703 1303 
Q 2703 1709 2433 1975 
Q 2163 2241 1756 2241 
Q 1359 2241 1098 1978 
Q 838 1716 838 1322 
z
" transform="scale(0.015625)"/>
       </defs>
       <use xlink:href="#ArialMT-38"/>
      </g>
     </g>
    </g>
    <g id="ytick_7">
     <g id="line2d_9">
      <g>
       <use xlink:href="#m9af60fc910" x="34.97" y="52.12282" style="fill: #262626; stroke: #262626; stroke-width: 1.25"/>
      </g>
     </g>
     <g id="text_9">
      <!-- 10 -->
      <g style="fill: #262626" transform="translate(13.235938 56.059617) scale(0.11 -0.11)">
       <defs>
        <path id="ArialMT-31" d="M 2384 0 
L 1822 0 
L 1822 3584 
Q 1619 3391 1289 3197 
Q 959 3003 697 2906 
L 697 3450 
Q 1169 3672 1522 3987 
Q 1875 4303 2022 4600 
L 2384 4600 
L 2384 0 
z
" transform="scale(0.015625)"/>
       </defs>
       <use xlink:href="#ArialMT-31"/>
       <use xlink:href="#ArialMT-30" x="55.615234"/>
      </g>
     </g>
    </g>
   </g>
   <g id="PolyCollection_1">
    <defs>
     <path id="m364f74850f" d="M 295.308042 -42.351818 
L 290.666958 -42.351818 
L 289.023871 -43.372287 
L 286.582045 -44.392757 
L 283.186097 -45.413226 
L 278.773977 -46.433695 
L 273.431957 -47.454164 
L 267.426173 -48.474634 
L 261.191062 -49.495103 
L 255.266567 -50.515572 
L 250.19445 -51.536041 
L 246.401342 -52.55651 
L 244.103456 -53.57698 
L 243.260348 -54.597449 
L 243.585787 -55.617918 
L 244.602344 -56.638387 
L 245.713739 -57.658857 
L 246.271225 -58.679326 
L 245.62454 -59.699795 
L 243.164508 -60.720264 
L 238.372556 -61.740734 
L 230.88689 -62.761203 
L 220.579249 -63.781672 
L 207.619535 -64.802141 
L 192.498974 -65.82261 
L 175.990741 -66.84308 
L 159.047453 -67.863549 
L 142.657962 -68.884018 
L 127.700648 -69.904487 
L 114.830389 -70.924957 
L 104.422701 -71.945426 
L 96.578579 -72.965895 
L 91.176632 -73.986364 
L 87.950929 -75.006834 
L 86.5735 -76.027303 
L 86.725565 -77.047772 
L 88.147161 -78.068241 
L 90.659603 -79.08871 
L 94.16038 -80.10918 
L 98.59657 -81.129649 
L 103.928718 -82.150118 
L 110.099157 -83.170587 
L 117.014708 -84.191057 
L 124.545636 -85.211526 
L 132.535326 -86.231995 
L 140.812663 -87.252464 
L 149.20182 -88.272934 
L 157.528995 -89.293403 
L 165.628573 -90.313872 
L 173.350829 -91.334341 
L 180.571114 -92.35481 
L 187.198851 -93.37528 
L 193.184799 -94.395749 
L 198.525894 -95.416218 
L 203.267422 -96.436687 
L 207.501545 -97.457157 
L 211.360305 -98.477626 
L 215.001296 -99.498095 
L 218.585847 -100.518564 
L 222.25243 -101.539033 
L 226.090928 -102.559503 
L 230.124824 -103.579972 
L 234.307315 -104.600441 
L 238.533672 -105.62091 
L 242.667214 -106.64138 
L 246.571905 -107.661849 
L 250.142897 -108.682318 
L 253.327634 -109.702787 
L 256.133585 -110.723257 
L 258.622427 -111.743726 
L 260.893343 -112.764195 
L 263.059565 -113.784664 
L 265.222902 -114.805133 
L 267.451227 -115.825603 
L 269.763813 -116.846072 
L 272.128435 -117.866541 
L 274.471866 -118.88701 
L 276.701737 -119.90748 
L 278.733808 -120.927949 
L 280.516054 -121.948418 
L 282.041415 -122.968887 
L 283.344905 -123.989357 
L 284.48678 -125.009826 
L 285.528995 -126.030295 
L 286.514478 -127.050764 
L 287.456802 -128.071233 
L 288.342776 -129.091703 
L 289.144841 -130.112172 
L 289.836752 -131.132641 
L 290.405818 -132.15311 
L 290.857672 -133.17358 
L 291.213227 -134.194049 
L 291.500601 -135.214518 
L 291.746095 -136.234987 
L 291.967756 -137.255457 
L 292.173258 -138.275926 
L 292.361782 -139.296395 
L 292.528123 -140.316864 
L 292.666946 -141.337333 
L 292.775621 -142.357803 
L 292.855141 -143.378272 
L 293.119859 -143.378272 
L 293.119859 -143.378272 
L 293.199379 -142.357803 
L 293.308054 -141.337333 
L 293.446877 -140.316864 
L 293.613218 -139.296395 
L 293.801742 -138.275926 
L 294.007244 -137.255457 
L 294.228905 -136.234987 
L 294.474399 -135.214518 
L 294.761773 -134.194049 
L 295.117328 -133.17358 
L 295.569182 -132.15311 
L 296.138248 -131.132641 
L 296.830159 -130.112172 
L 297.632224 -129.091703 
L 298.518198 -128.071233 
L 299.460522 -127.050764 
L 300.446005 -126.030295 
L 301.48822 -125.009826 
L 302.630095 -123.989357 
L 303.933585 -122.968887 
L 305.458946 -121.948418 
L 307.241192 -120.927949 
L 309.273263 -119.90748 
L 311.503134 -118.88701 
L 313.846565 -117.866541 
L 316.211187 -116.846072 
L 318.523773 -115.825603 
L 320.752098 -114.805133 
L 322.915435 -113.784664 
L 325.081657 -112.764195 
L 327.352573 -111.743726 
L 329.841415 -110.723257 
L 332.647366 -109.702787 
L 335.832103 -108.682318 
L 339.403095 -107.661849 
L 343.307786 -106.64138 
L 347.441328 -105.62091 
L 351.667685 -104.600441 
L 355.850176 -103.579972 
L 359.884072 -102.559503 
L 363.72257 -101.539033 
L 367.389153 -100.518564 
L 370.973704 -99.498095 
L 374.614695 -98.477626 
L 378.473455 -97.457157 
L 382.707578 -96.436687 
L 387.449106 -95.416218 
L 392.790201 -94.395749 
L 398.776149 -93.37528 
L 405.403886 -92.35481 
L 412.624171 -91.334341 
L 420.346427 -90.313872 
L 428.446005 -89.293403 
L 436.77318 -88.272934 
L 445.162337 -87.252464 
L 453.439674 -86.231995 
L 461.429364 -85.211526 
L 468.960292 -84.191057 
L 475.875843 -83.170587 
L 482.046282 -82.150118 
L 487.37843 -81.129649 
L 491.81462 -80.10918 
L 495.315397 -79.08871 
L 497.827839 -78.068241 
L 499.249435 -77.047772 
L 499.4015 -76.027303 
L 498.024071 -75.006834 
L 494.798368 -73.986364 
L 489.396421 -72.965895 
L 481.552299 -71.945426 
L 471.144611 -70.924957 
L 458.274352 -69.904487 
L 443.317038 -68.884018 
L 426.927547 -67.863549 
L 409.984259 -66.84308 
L 393.476026 -65.82261 
L 378.355465 -64.802141 
L 365.395751 -63.781672 
L 355.08811 -62.761203 
L 347.602444 -61.740734 
L 342.810492 -60.720264 
L 340.35046 -59.699795 
L 339.703775 -58.679326 
L 340.261261 -57.658857 
L 341.372656 -56.638387 
L 342.389213 -55.617918 
L 342.714652 -54.597449 
L 341.871544 -53.57698 
L 339.573658 -52.55651 
L 335.78055 -51.536041 
L 330.708433 -50.515572 
L 324.783938 -49.495103 
L 318.548827 -48.474634 
L 312.543043 -47.454164 
L 307.201023 -46.433695 
L 302.788903 -45.413226 
L 299.392955 -44.392757 
L 296.951129 -43.372287 
L 295.308042 -42.351818 
z
" style="stroke: #484848; stroke-width: 3"/>
    </defs>
    <g clip-path="url(#p16754c6384)">
     <use xlink:href="#m364f74850f" x="0" y="288" style="fill: #cb3335; stroke: #484848; stroke-width: 3"/>
    </g>
   </g>
   <g id="PolyCollection_2">
    <defs>
     <path id="m73d1a531fd" d="M 814.147745 -63.793253 
L 803.897255 -63.793253 
L 794.285813 -65.558858 
L 773.704156 -67.324463 
L 738.376874 -69.090069 
L 690.724331 -70.855674 
L 642.247645 -72.62128 
L 609.207042 -74.386885 
L 602.6085 -76.15249 
L 621.440254 -77.918096 
L 655.283278 -79.683701 
L 692.231554 -81.449306 
L 724.316645 -83.214912 
L 748.217867 -84.980517 
L 763.905714 -86.746122 
L 773.17309 -88.511728 
L 778.287361 -90.277333 
L 781.094371 -92.042938 
L 782.941098 -93.808544 
L 784.930462 -95.574149 
L 787.800836 -97.339754 
L 791.548854 -99.10536 
L 795.443522 -100.870965 
L 798.608184 -102.63657 
L 800.65299 -104.402176 
L 801.800467 -106.167781 
L 802.505385 -107.933386 
L 803.042426 -109.698992 
L 803.434839 -111.464597 
L 803.646364 -113.230202 
L 803.742152 -114.995808 
L 803.890738 -116.761413 
L 804.270747 -118.527018 
L 804.964381 -120.292624 
L 805.898643 -122.058229 
L 806.883194 -123.823834 
L 807.718782 -125.58944 
L 808.282036 -127.355045 
L 808.532534 -129.120651 
L 808.475677 -130.886256 
L 808.143729 -132.651861 
L 807.613582 -134.417467 
L 807.021763 -136.183072 
L 806.533929 -137.948677 
L 806.280084 -139.714283 
L 806.299187 -141.479888 
L 806.516933 -143.245493 
L 806.768338 -145.011099 
L 806.878435 -146.776704 
L 806.774819 -148.542309 
L 806.553898 -150.307915 
L 806.433747 -152.07352 
L 806.605187 -153.839125 
L 807.088398 -155.604731 
L 807.722432 -157.370336 
L 808.295949 -159.135941 
L 808.686863 -160.901547 
L 808.894755 -162.667152 
L 808.98252 -164.432757 
L 809.012223 -166.198363 
L 809.020331 -167.963968 
L 809.022125 -169.729573 
L 809.022447 -171.495179 
L 809.022494 -173.260784 
L 809.022499 -175.026389 
L 809.0225 -176.791995 
L 809.0225 -178.5576 
L 809.0225 -180.323205 
L 809.0225 -182.088811 
L 809.0225 -183.854416 
L 809.0225 -185.620022 
L 809.0225 -187.385627 
L 809.0225 -189.151232 
L 809.0225 -190.916838 
L 809.0225 -192.682443 
L 809.0225 -194.448048 
L 809.0225 -196.213654 
L 809.0225 -197.979259 
L 809.0225 -199.744864 
L 809.0225 -201.51047 
L 809.0225 -203.276075 
L 809.0225 -205.04168 
L 809.0225 -206.807286 
L 809.0225 -208.572891 
L 809.022498 -210.338496 
L 809.022482 -212.104102 
L 809.022366 -213.869707 
L 809.021696 -215.635312 
L 809.018555 -217.400918 
L 809.006634 -219.166523 
L 808.970182 -220.932128 
L 808.881042 -222.697734 
L 808.708883 -224.463339 
L 808.452383 -226.228944 
L 808.172689 -227.99455 
L 807.983838 -229.760155 
L 807.981574 -231.52576 
L 808.16712 -233.291366 
L 808.446143 -235.056971 
L 808.704067 -236.822576 
L 808.878242 -238.588182 
L 809.166758 -238.588182 
L 809.166758 -238.588182 
L 809.340933 -236.822576 
L 809.598857 -235.056971 
L 809.87788 -233.291366 
L 810.063426 -231.52576 
L 810.061162 -229.760155 
L 809.872311 -227.99455 
L 809.592617 -226.228944 
L 809.336117 -224.463339 
L 809.163958 -222.697734 
L 809.074818 -220.932128 
L 809.038366 -219.166523 
L 809.026445 -217.400918 
L 809.023304 -215.635312 
L 809.022634 -213.869707 
L 809.022518 -212.104102 
L 809.022502 -210.338496 
L 809.0225 -208.572891 
L 809.0225 -206.807286 
L 809.0225 -205.04168 
L 809.0225 -203.276075 
L 809.0225 -201.51047 
L 809.0225 -199.744864 
L 809.0225 -197.979259 
L 809.0225 -196.213654 
L 809.0225 -194.448048 
L 809.0225 -192.682443 
L 809.0225 -190.916838 
L 809.0225 -189.151232 
L 809.0225 -187.385627 
L 809.0225 -185.620022 
L 809.0225 -183.854416 
L 809.0225 -182.088811 
L 809.0225 -180.323205 
L 809.0225 -178.5576 
L 809.0225 -176.791995 
L 809.022501 -175.026389 
L 809.022506 -173.260784 
L 809.022553 -171.495179 
L 809.022875 -169.729573 
L 809.024669 -167.963968 
L 809.032777 -166.198363 
L 809.06248 -164.432757 
L 809.150245 -162.667152 
L 809.358137 -160.901547 
L 809.749051 -159.135941 
L 810.322568 -157.370336 
L 810.956602 -155.604731 
L 811.439813 -153.839125 
L 811.611253 -152.07352 
L 811.491102 -150.307915 
L 811.270181 -148.542309 
L 811.166565 -146.776704 
L 811.276662 -145.011099 
L 811.528067 -143.245493 
L 811.745813 -141.479888 
L 811.764916 -139.714283 
L 811.511071 -137.948677 
L 811.023237 -136.183072 
L 810.431418 -134.417467 
L 809.901271 -132.651861 
L 809.569323 -130.886256 
L 809.512466 -129.120651 
L 809.762964 -127.355045 
L 810.326218 -125.58944 
L 811.161806 -123.823834 
L 812.146357 -122.058229 
L 813.080619 -120.292624 
L 813.774253 -118.527018 
L 814.154262 -116.761413 
L 814.302848 -114.995808 
L 814.398636 -113.230202 
L 814.610161 -111.464597 
L 815.002574 -109.698992 
L 815.539615 -107.933386 
L 816.244533 -106.167781 
L 817.39201 -104.402176 
L 819.436816 -102.63657 
L 822.601478 -100.870965 
L 826.496146 -99.10536 
L 830.244164 -97.339754 
L 833.114538 -95.574149 
L 835.103902 -93.808544 
L 836.950629 -92.042938 
L 839.757639 -90.277333 
L 844.87191 -88.511728 
L 854.139286 -86.746122 
L 869.827133 -84.980517 
L 893.728355 -83.214912 
L 925.813446 -81.449306 
L 962.761722 -79.683701 
L 996.604746 -77.918096 
L 1015.4365 -76.15249 
L 1008.837958 -74.386885 
L 975.797355 -72.62128 
L 927.320669 -70.855674 
L 879.668126 -69.090069 
L 844.340844 -67.324463 
L 823.759187 -65.558858 
L 814.147745 -63.793253 
z
" style="stroke: #484848; stroke-width: 3"/>
    </defs>
    <g clip-path="url(#p16754c6384)">
     <use xlink:href="#m73d1a531fd" x="0" y="288" style="fill: #477ca8; stroke: #484848; stroke-width: 3"/>
    </g>
   </g>
   <g id="line2d_10">
    <path d="M 292.9875 237.363379 
L 292.9875 169.887048 
" clip-path="url(#p16754c6384)" style="fill: none; stroke: #484848; stroke-width: 4.5; stroke-linecap: round"/>
   </g>
   <g id="line2d_11">
    <path d="M 292.9875 216.45081 
L 292.9875 197.480389 
" clip-path="url(#p16754c6384)" style="fill: none; stroke: #484848; stroke-width: 13.5; stroke-linecap: round"/>
   </g>
   <g id="line2d_12">
    <path d="M 292.9875 208.093212 
" clip-path="url(#p16754c6384)" style="fill: none; stroke: #484848; stroke-width: 1.5; stroke-linecap: round"/>
    <defs>
     <path id="ma366e80da0" d="M 5.625 0 
L -5.625 -0 
" style="stroke: #ffffff; stroke-width: 2.7"/>
    </defs>
    <g clip-path="url(#p16754c6384)">
     <use xlink:href="#ma366e80da0" x="292.9875" y="208.093212" style="fill: #ffffff; stroke: #ffffff; stroke-width: 2.7"/>
    </g>
   </g>
   <g id="line2d_13">
    <path d="M 809.0225 216.280889 
L 809.0225 196.115517 
" clip-path="url(#p16754c6384)" style="fill: none; stroke: #484848; stroke-width: 4.5; stroke-linecap: round"/>
   </g>
   <g id="line2d_14">
    <path d="M 809.0225 213.826794 
L 809.0225 206.663558 
" clip-path="url(#p16754c6384)" style="fill: none; stroke: #484848; stroke-width: 13.5; stroke-linecap: round"/>
   </g>
   <g id="line2d_15">
    <path d="M 809.0225 211.796669 
" clip-path="url(#p16754c6384)" style="fill: none; stroke: #484848; stroke-width: 1.5; stroke-linecap: round"/>
    <g clip-path="url(#p16754c6384)">
     <use xlink:href="#ma366e80da0" x="809.0225" y="211.796669" style="fill: #ffffff; stroke: #ffffff; stroke-width: 2.7"/>
    </g>
   </g>
   <g id="patch_3">
    <path d="M 34.97 255.46 
L 34.97 39.6 
" style="fill: none; stroke: #262626; stroke-width: 1.25; stroke-linejoin: miter; stroke-linecap: square"/>
   </g>
   <g id="patch_4">
    <path d="M 1067.04 255.46 
L 1067.04 39.6 
" style="fill: none; stroke: #262626; stroke-width: 1.25; stroke-linejoin: miter; stroke-linecap: square"/>
   </g>
   <g id="patch_5">
    <path d="M 34.97 255.46 
L 1067.04 255.46 
" style="fill: none; stroke: #262626; stroke-width: 1.25; stroke-linejoin: miter; stroke-linecap: square"/>
   </g>
   <g id="patch_6">
    <path d="M 34.97 39.6 
L 1067.04 39.6 
" style="fill: none; stroke: #262626; stroke-width: 1.25; stroke-linejoin: miter; stroke-linecap: square"/>
   </g>
  </g>
  <g id="text_10">
   <!-- Violin Plot of all Continuous Variables -->
   <g style="fill: #262626" transform="translate(416.035547 16.496719) scale(0.15 -0.15)">
    <defs>
     <path id="ArialMT-56" d="M 1803 0 
L 28 4581 
L 684 4581 
L 1875 1253 
Q 2019 853 2116 503 
Q 2222 878 2363 1253 
L 3600 4581 
L 4219 4581 
L 2425 0 
L 1803 0 
z
" transform="scale(0.015625)"/>
     <path id="ArialMT-69" d="M 425 3934 
L 425 4581 
L 988 4581 
L 988 3934 
L 425 3934 
z
M 425 0 
L 425 3319 
L 988 3319 
L 988 0 
L 425 0 
z
" transform="scale(0.015625)"/>
     <path id="ArialMT-6f" d="M 213 1659 
Q 213 2581 725 3025 
Q 1153 3394 1769 3394 
Q 2453 3394 2887 2945 
Q 3322 2497 3322 1706 
Q 3322 1066 3130 698 
Q 2938 331 2570 128 
Q 2203 -75 1769 -75 
Q 1072 -75 642 372 
Q 213 819 213 1659 
z
M 791 1659 
Q 791 1022 1069 705 
Q 1347 388 1769 388 
Q 2188 388 2466 706 
Q 2744 1025 2744 1678 
Q 2744 2294 2464 2611 
Q 2184 2928 1769 2928 
Q 1347 2928 1069 2612 
Q 791 2297 791 1659 
z
" transform="scale(0.015625)"/>
     <path id="ArialMT-6c" d="M 409 0 
L 409 4581 
L 972 4581 
L 972 0 
L 409 0 
z
" transform="scale(0.015625)"/>
     <path id="ArialMT-6e" d="M 422 0 
L 422 3319 
L 928 3319 
L 928 2847 
Q 1294 3394 1984 3394 
Q 2284 3394 2536 3286 
Q 2788 3178 2913 3003 
Q 3038 2828 3088 2588 
Q 3119 2431 3119 2041 
L 3119 0 
L 2556 0 
L 2556 2019 
Q 2556 2363 2490 2533 
Q 2425 2703 2258 2804 
Q 2091 2906 1866 2906 
Q 1506 2906 1245 2678 
Q 984 2450 984 1813 
L 984 0 
L 422 0 
z
" transform="scale(0.015625)"/>
     <path id="ArialMT-20" transform="scale(0.015625)"/>
     <path id="ArialMT-50" d="M 494 0 
L 494 4581 
L 2222 4581 
Q 2678 4581 2919 4538 
Q 3256 4481 3484 4323 
Q 3713 4166 3852 3881 
Q 3991 3597 3991 3256 
Q 3991 2672 3619 2267 
Q 3247 1863 2275 1863 
L 1100 1863 
L 1100 0 
L 494 0 
z
M 1100 2403 
L 2284 2403 
Q 2872 2403 3119 2622 
Q 3366 2841 3366 3238 
Q 3366 3525 3220 3729 
Q 3075 3934 2838 4000 
Q 2684 4041 2272 4041 
L 1100 4041 
L 1100 2403 
z
" transform="scale(0.015625)"/>
     <path id="ArialMT-74" d="M 1650 503 
L 1731 6 
Q 1494 -44 1306 -44 
Q 1000 -44 831 53 
Q 663 150 594 308 
Q 525 466 525 972 
L 525 2881 
L 113 2881 
L 113 3319 
L 525 3319 
L 525 4141 
L 1084 4478 
L 1084 3319 
L 1650 3319 
L 1650 2881 
L 1084 2881 
L 1084 941 
Q 1084 700 1114 631 
Q 1144 563 1211 522 
Q 1278 481 1403 481 
Q 1497 481 1650 503 
z
" transform="scale(0.015625)"/>
     <path id="ArialMT-66" d="M 556 0 
L 556 2881 
L 59 2881 
L 59 3319 
L 556 3319 
L 556 3672 
Q 556 4006 616 4169 
Q 697 4388 901 4523 
Q 1106 4659 1475 4659 
Q 1713 4659 2000 4603 
L 1916 4113 
Q 1741 4144 1584 4144 
Q 1328 4144 1222 4034 
Q 1116 3925 1116 3625 
L 1116 3319 
L 1763 3319 
L 1763 2881 
L 1116 2881 
L 1116 0 
L 556 0 
z
" transform="scale(0.015625)"/>
     <path id="ArialMT-43" d="M 3763 1606 
L 4369 1453 
Q 4178 706 3683 314 
Q 3188 -78 2472 -78 
Q 1731 -78 1267 223 
Q 803 525 561 1097 
Q 319 1669 319 2325 
Q 319 3041 592 3573 
Q 866 4106 1370 4382 
Q 1875 4659 2481 4659 
Q 3169 4659 3637 4309 
Q 4106 3959 4291 3325 
L 3694 3184 
Q 3534 3684 3231 3912 
Q 2928 4141 2469 4141 
Q 1941 4141 1586 3887 
Q 1231 3634 1087 3207 
Q 944 2781 944 2328 
Q 944 1744 1114 1308 
Q 1284 872 1643 656 
Q 2003 441 2422 441 
Q 2931 441 3284 734 
Q 3638 1028 3763 1606 
z
" transform="scale(0.015625)"/>
     <path id="ArialMT-75" d="M 2597 0 
L 2597 488 
Q 2209 -75 1544 -75 
Q 1250 -75 995 37 
Q 741 150 617 320 
Q 494 491 444 738 
Q 409 903 409 1263 
L 409 3319 
L 972 3319 
L 972 1478 
Q 972 1038 1006 884 
Q 1059 663 1231 536 
Q 1403 409 1656 409 
Q 1909 409 2131 539 
Q 2353 669 2445 892 
Q 2538 1116 2538 1541 
L 2538 3319 
L 3100 3319 
L 3100 0 
L 2597 0 
z
" transform="scale(0.015625)"/>
     <path id="ArialMT-73" d="M 197 991 
L 753 1078 
Q 800 744 1014 566 
Q 1228 388 1613 388 
Q 2000 388 2187 545 
Q 2375 703 2375 916 
Q 2375 1106 2209 1216 
Q 2094 1291 1634 1406 
Q 1016 1563 777 1677 
Q 538 1791 414 1992 
Q 291 2194 291 2438 
Q 291 2659 392 2848 
Q 494 3038 669 3163 
Q 800 3259 1026 3326 
Q 1253 3394 1513 3394 
Q 1903 3394 2198 3281 
Q 2494 3169 2634 2976 
Q 2775 2784 2828 2463 
L 2278 2388 
Q 2241 2644 2061 2787 
Q 1881 2931 1553 2931 
Q 1166 2931 1000 2803 
Q 834 2675 834 2503 
Q 834 2394 903 2306 
Q 972 2216 1119 2156 
Q 1203 2125 1616 2013 
Q 2213 1853 2448 1751 
Q 2684 1650 2818 1456 
Q 2953 1263 2953 975 
Q 2953 694 2789 445 
Q 2625 197 2315 61 
Q 2006 -75 1616 -75 
Q 969 -75 630 194 
Q 291 463 197 991 
z
" transform="scale(0.015625)"/>
     <path id="ArialMT-62" d="M 941 0 
L 419 0 
L 419 4581 
L 981 4581 
L 981 2947 
Q 1338 3394 1891 3394 
Q 2197 3394 2470 3270 
Q 2744 3147 2920 2923 
Q 3097 2700 3197 2384 
Q 3297 2069 3297 1709 
Q 3297 856 2875 390 
Q 2453 -75 1863 -75 
Q 1275 -75 941 416 
L 941 0 
z
M 934 1684 
Q 934 1088 1097 822 
Q 1363 388 1816 388 
Q 2184 388 2453 708 
Q 2722 1028 2722 1663 
Q 2722 2313 2464 2622 
Q 2206 2931 1841 2931 
Q 1472 2931 1203 2611 
Q 934 2291 934 1684 
z
" transform="scale(0.015625)"/>
    </defs>
    <use xlink:href="#ArialMT-56"/>
    <use xlink:href="#ArialMT-69" x="64.949219"/>
    <use xlink:href="#ArialMT-6f" x="87.166016"/>
    <use xlink:href="#ArialMT-6c" x="142.78125"/>
    <use xlink:href="#ArialMT-69" x="164.998047"/>
    <use xlink:href="#ArialMT-6e" x="187.214844"/>
    <use xlink:href="#ArialMT-20" x="242.830078"/>
    <use xlink:href="#ArialMT-50" x="270.613281"/>
    <use xlink:href="#ArialMT-6c" x="337.3125"/>
    <use xlink:href="#ArialMT-6f" x="359.529297"/>
    <use xlink:href="#ArialMT-74" x="415.144531"/>
    <use xlink:href="#ArialMT-20" x="442.927734"/>
    <use xlink:href="#ArialMT-6f" x="470.710938"/>
    <use xlink:href="#ArialMT-66" x="526.326172"/>
    <use xlink:href="#ArialMT-20" x="554.109375"/>
    <use xlink:href="#ArialMT-61" x="581.892578"/>
    <use xlink:href="#ArialMT-6c" x="637.507812"/>
    <use xlink:href="#ArialMT-6c" x="659.724609"/>
    <use xlink:href="#ArialMT-20" x="681.941406"/>
    <use xlink:href="#ArialMT-43" x="709.724609"/>
    <use xlink:href="#ArialMT-6f" x="781.941406"/>
    <use xlink:href="#ArialMT-6e" x="837.556641"/>
    <use xlink:href="#ArialMT-74" x="893.171875"/>
    <use xlink:href="#ArialMT-69" x="920.955078"/>
    <use xlink:href="#ArialMT-6e" x="943.171875"/>
    <use xlink:href="#ArialMT-75" x="998.787109"/>
    <use xlink:href="#ArialMT-6f" x="1054.402344"/>
    <use xlink:href="#ArialMT-75" x="1110.017578"/>
    <use xlink:href="#ArialMT-73" x="1165.632812"/>
    <use xlink:href="#ArialMT-20" x="1215.632812"/>
    <use xlink:href="#ArialMT-56" x="1243.416016"/>
    <use xlink:href="#ArialMT-61" x="1302.740234"/>
    <use xlink:href="#ArialMT-72" x="1358.355469"/>
    <use xlink:href="#ArialMT-69" x="1391.65625"/>
    <use xlink:href="#ArialMT-61" x="1413.873047"/>
    <use xlink:href="#ArialMT-62" x="1469.488281"/>
    <use xlink:href="#ArialMT-6c" x="1525.103516"/>
    <use xlink:href="#ArialMT-65" x="1547.320312"/>
    <use xlink:href="#ArialMT-73" x="1602.935547"/>
   </g>
  </g>
 </g>
 <defs>
  <clipPath id="p16754c6384">
   <rect x="34.97" y="39.6" width="1032.07" height="215.86"/>
  </clipPath>
 </defs>
</svg>
